<?xml version="1.0" encoding="UTF-8"?>
<!DOCTYPE svg PUBLIC "-//W3C//DTD SVG 1.1//EN" "http://www.w3.org/Graphics/SVG/1.1/DTD/svg11.dtd">
<svg xmlns="http://www.w3.org/2000/svg" xml:space="preserve" width="550px" height="550px" version="1.1" style="shape-rendering:geometricPrecision; text-rendering:geometricPrecision; image-rendering:optimizeQuality; fill-rule:evenodd; clip-rule:evenodd"
viewBox="0 0 550 550"
 xmlns:xlink="http://www.w3.org/1999/xlink"
 xmlns:xodm="http://www.corel.com/coreldraw/odm/2003">
 <defs>
  <style type="text/css">
   <![CDATA[
    .str0 {stroke:white;stroke-linecap:round;stroke-linejoin:round;stroke-miterlimit:2.61313}
    .str1 {stroke:black;stroke-linecap:round;stroke-linejoin:round;stroke-miterlimit:2.61313}
    .fil4 {fill:none}
    .fil2 {fill:black}
    .fil3 {fill:white}
    .fil5 {fill:black}
    .fil6 {fill:#ABABAB}
    .fil1 {fill:#BC002D}
    .fil0 {fill:white}
   ]]>
  </style>
    <clipPath id="id0">
     <path d="M275 24.56c138.32,0 250.45,112.12 250.45,250.44 0,138.32 -112.13,250.45 -250.45,250.45 -138.32,0 -250.45,-112.13 -250.45,-250.45 0,-138.32 112.13,-250.44 250.45,-250.44z"/>
    </clipPath>
    <clipPath id="id1">
     <path d="M275 24.56c138.32,0 250.45,112.12 250.45,250.44 0,138.32 -112.13,250.45 -250.45,250.45 -138.32,0 -250.45,-112.13 -250.45,-250.45 0,-138.32 112.13,-250.44 250.45,-250.44z"/>
    </clipPath>
    <clipPath id="id2">
     <path d="M275 275l5.9 -12.56c7.12,-0.36 13.59,3.55 19.31,12.56 -0.4,-21.07 -14.3,-25.71 -25.29,-32.05 -10.98,6.34 -24.72,10.98 -25.12,32.05 5.71,-9.01 12.19,-12.92 19.31,-12.56l5.89 12.56zm0 100.67c22.53,-18.07 36.88,-46.98 41.1,-89.29 3.97,16.38 3.19,32.77 -0.92,49.15 8.89,-7.61 15.58,-19.19 19.08,-36.48l0.28 -97.96 -17.9 0c1.04,11.57 0.17,20.41 -3.87,24.75l0 20.71 -1.93 0c-11.4,-17.2 -25.92,-22.7 -35.87,-13.87 -9.95,-8.83 -24.41,-3.33 -35.81,13.87l-1.93 0 0 -20.71c-4.04,-4.34 -4.91,-13.18 -3.86,-24.75l-17.9 0 0.27 97.96c3.51,17.29 10.19,28.87 19.08,36.48 -4.11,-16.38 -4.89,-32.77 -0.92,-49.15 4.22,42.31 18.57,71.22 41.1,89.29l0 0z"/>
    </clipPath>
    <clipPath id="id3">
     <path d="M275 275l5.9 -12.56c7.12,-0.36 13.59,3.55 19.31,12.56 -0.4,-21.07 -14.3,-25.71 -25.29,-32.05 -10.98,6.34 -24.72,10.98 -25.12,32.05 5.71,-9.01 12.19,-12.92 19.31,-12.56l5.89 12.56zm0 100.67c22.53,-18.07 36.88,-46.98 41.1,-89.29 3.97,16.38 3.19,32.77 -0.92,49.15 8.89,-7.61 15.58,-19.19 19.08,-36.48l0.28 -97.96 -17.9 0c1.04,11.57 0.17,20.41 -3.87,24.75l0 20.71 -1.93 0c-11.4,-17.2 -25.92,-22.7 -35.87,-13.87 -9.95,-8.83 -24.41,-3.33 -35.81,13.87l-1.93 0 0 -20.71c-4.04,-4.34 -4.91,-13.18 -3.86,-24.75l-17.9 0 0.27 97.96c3.51,17.29 10.19,28.87 19.08,36.48 -4.11,-16.38 -4.89,-32.77 -0.92,-49.15 4.22,42.31 18.57,71.22 41.1,89.29l0 0z"/>
    </clipPath>
    <clipPath id="id4">
     <path d="M401.09 337.82l10.09 10.09 6.66 -43.43 -26.61 -15.85 -14.51 0 -24.62 -10.95 22.23 18.27 31.55 13.01 -4.79 28.86z"/>
    </clipPath>
    <clipPath id="id5">
     <path d="M401.09 337.82l10.09 10.09 6.66 -43.43 -26.61 -15.85 -14.51 0 -24.62 -10.95 22.23 18.27 31.55 13.01 -4.79 28.86z"/>
    </clipPath>
    <clipPath id="id6">
     <path d="M148.98 337.82l-10.09 10.09 -6.66 -43.44 26.62 -15.85 14.5 0 24.62 -10.95 -22.23 18.28 -31.55 13.01 4.79 28.86z"/>
    </clipPath>
    <clipPath id="id7">
     <path d="M148.98 337.82l-10.09 10.09 -6.66 -43.44 26.62 -15.85 14.5 0 24.62 -10.95 -22.23 18.28 -31.55 13.01 4.79 28.86z"/>
    </clipPath>
    <clipPath id="id8">
     <path d="M367.04 384.98l-6.87 -8.51c-46.8,19.29 -54.99,25.14 -66.86,37.02l73.73 -28.51z"/>
    </clipPath>
    <clipPath id="id9">
     <path d="M367.04 384.98l-6.87 -8.51c-46.8,19.29 -54.99,25.14 -66.86,37.02l73.73 -28.51z"/>
    </clipPath>
    <clipPath id="id10">
     <path d="M182.87 384.96l6.87 -8.51c46.8,19.29 54.99,25.13 66.86,37.02l-73.73 -28.51z"/>
    </clipPath>
    <clipPath id="id11">
     <path d="M182.87 384.96l6.87 -8.51c46.8,19.29 54.99,25.13 66.86,37.02l-73.73 -28.51z"/>
    </clipPath>
 </defs>
 <g id="Layer_x0020_1">
  <metadata id="CorelCorpID_0Corel-Layer"/>
  <g id="_1975941540320">
   <path class="fil0" d="M275 0c151.88,0 275,123.12 275,275 0,151.88 -123.12,275 -275,275 -151.88,0 -275,-123.12 -275,-275 0,-151.88 123.12,-275 275,-275z"/>
   <g style="clip-path:url(#id0)">
    <polygon class="fil1" points="24.55,24.56 525.45,24.56 525.45,525.45 24.55,525.45 "/>
   </g>
   <g style="clip-path:url(#id1)">
    <g>
     <rect class="fil2" x="0.68" y="275.16" width="548.63" height="19.64"/>
     <rect class="fil3" x="2.78" y="294.8" width="544.45" height="19.64"/>
     <rect class="fil2" x="6.22" y="314.45" width="537.56" height="19.64"/>
     <rect class="fil3" x="11.22" y="334.09" width="527.56" height="19.64"/>
     <rect class="fil2" x="17.89" y="353.73" width="514.27" height="19.64"/>
     <rect class="fil3" x="26.7" y="373.38" width="496.65" height="19.64"/>
     <rect class="fil2" x="37.48" y="393.02" width="475.09" height="19.64"/>
     <rect class="fil3" x="49.87" y="412.66" width="450.31" height="19.64"/>
    </g>
   </g>
   <path class="fil4 str0" d="M275 24.56c138.32,0 250.45,112.12 250.45,250.44 0,138.32 -112.13,250.45 -250.45,250.45 -138.32,0 -250.45,-112.13 -250.45,-250.45 0,-138.32 112.13,-250.44 250.45,-250.44z"/>
   <g>
    <circle class="fil3" cx="76.1" cy="207.69" r="7.5"/>
    <polygon class="fil3" points="225.1,46.29 228.1,58.29 240.1,61.29 228.1,64.29 225.1,76.29 222.1,64.29 210.1,61.29 222.1,58.29 "/>
    <circle class="fil3" cx="201.95" cy="112.07" r="10"/>
    <polygon class="fil3" points="470.45,180.41 475.14,188.22 482.95,192.91 475.14,197.59 470.45,205.41 465.76,197.59 457.95,192.91 465.76,188.22 "/>
    <polygon class="fil3" points="446.33,225.6 449.83,232.1 456.33,235.6 449.83,239.1 446.33,245.6 442.83,239.1 436.33,235.6 442.83,232.1 "/>
    <circle class="fil3" cx="118.36" cy="242.97" r="20"/>
    <polygon class="fil3" points="436.43,196.79 439.05,201.66 443.93,204.29 439.05,206.92 436.43,211.79 433.8,206.92 428.93,204.29 433.8,201.66 "/>
   </g>
   <path class="fil5 str1" d="M352.1 237.09c36.37,-8.84 60.4,-23.77 60.4,-40.67 0,-18.29 -28.02,-34.25 -69.58,-42.7l-23.09 -57.09c25.57,-2.63 51.94,-2.77 37.87,-15.72l-63.82 -38.6 -55.92 39.23c-10.17,24.03 -19.02,47.81 -29.19,71.84 -42.48,8.35 -71.27,24.5 -71.27,43.04 0,16.94 24.02,31.88 60.56,40.71l-0.16 23.75 -72.57 26.49 -44.66 145.63c48.68,58.37 113.2,89.57 194.33,92.45 81.13,-2.88 145.65,-34.08 194.33,-92.45l-44.66 -145.63 -72.57 -26.49 0 -23.79z"/>
   <path class="fil0" d="M384.83 182.08c-9.53,-4.24 -38.28,-13.02 -46.1,-12.89l-127.88 0c-7.82,-0.13 -36.76,8.65 -46.29,12.89l220.27 0z"/>
   <path class="fil0" d="M274.89 135.4c15.38,0.77 30.62,2.65 45.93,5.26l-6.84 -20.16c-12.7,-2.62 -25.39,-4.38 -39.09,-5.08 -13.69,0.7 -26.39,2.46 -39.09,5.08l-6.84 20.16c15.31,-2.61 30.56,-4.49 45.93,-5.26z"/>
   <path class="fil0" d="M275.01 438.34l126.42 -47.46 -5.34 37.57 8.92 -0.32 5.98 -37.12c1.35,-8.33 -1.5,-13.3 -9.69,-13.48l-126.3 49.05 -126.3 -49.05c-8.19,0.18 -11.03,5.15 -9.69,13.48l5.99 37.12 8.91 0.32 -5.34 -37.57 126.44 47.46z"/>
   <path class="fil0" d="M194.69 370.99l8.32 -14.03c40.92,19.47 60.21,38.56 67.56,57.43 -18.23,-18.23 -47.95,-31.87 -75.88,-43.4z"/>
   <path class="fil0" d="M354.98 370.99l-8.31 -14.03c-40.93,19.47 -60.22,38.56 -67.57,57.43 18.23,-18.23 47.96,-31.87 75.88,-43.4z"/>
   <g style="clip-path:url(#id2)">
    <polygon class="fil0" points="215.47,201.09 334.54,201.09 334.54,375.67 215.47,375.67 "/>
   </g>
   <g style="clip-path:url(#id3)">
    <g>
     <path id="_1" class="fil6" d="M215.09 206.1c6.19,3.35 12.48,5.64 18.85,7.08l0.04 -12.35 -18.9 -0.13 0.01 5.4z"/>
     <path class="fil6" d="M335.12 206.14c-6.19,3.35 -12.48,5.65 -18.85,7.08l-0.04 -12.35 18.91 -0.12 -0.02 5.39z"/>
    </g>
   </g>
   <path class="fil4" d="M275 275l5.9 -12.56c7.12,-0.36 13.59,3.55 19.31,12.56 -0.4,-21.07 -14.3,-25.71 -25.29,-32.05 -10.98,6.34 -24.72,10.98 -25.12,32.05 5.71,-9.01 12.19,-12.92 19.31,-12.56l5.89 12.56zm0 100.67c22.53,-18.07 36.88,-46.98 41.1,-89.29 3.97,16.38 3.19,32.77 -0.92,49.15 8.89,-7.61 15.58,-19.19 19.08,-36.48l0.28 -97.96 -17.9 0c1.04,11.57 0.17,20.41 -3.87,24.75l0 20.71 -1.93 0c-11.4,-17.2 -25.92,-22.7 -35.87,-13.87 -9.95,-8.83 -24.41,-3.33 -35.81,13.87l-1.93 0 0 -20.71c-4.04,-4.34 -4.91,-13.18 -3.86,-24.75l-17.9 0 0.27 97.96c3.51,17.29 10.19,28.87 19.08,36.48 -4.11,-16.38 -4.89,-32.77 -0.92,-49.15 4.22,42.31 18.57,71.22 41.1,89.29"/>
   <g style="clip-path:url(#id4)">
    <polygon class="fil0" points="352.1,277.68 417.84,277.68 417.84,347.91 352.1,347.91 "/>
   </g>
   <g style="clip-path:url(#id5)">
    <g>
     <path id="_1_0" class="fil6" d="M404.72 308.79c5.73,1.33 10.43,3.13 13.69,5.61l-6.62 33.97 -13.23 -10.39 6.16 -29.19z"/>
    </g>
   </g>
   <polygon class="fil4" points="401.09,337.82 411.18,347.91 417.84,304.48 391.23,288.63 376.72,288.63 352.1,277.68 374.33,295.95 405.88,308.96 "/>
   <g style="clip-path:url(#id6)">
    <polygon class="fil0" points="132.23,277.67 197.97,277.67 197.97,347.91 132.23,347.91 "/>
   </g>
   <g style="clip-path:url(#id7)">
    <g>
     <path id="_1_1" class="fil6" d="M145.35 308.79c-5.72,1.32 -10.43,3.13 -13.69,5.6l6.62 33.97 13.23 -10.39 -6.16 -29.18z"/>
    </g>
   </g>
   <polygon class="fil4" points="148.98,337.82 138.89,347.91 132.23,304.47 158.85,288.62 173.35,288.62 197.97,277.67 175.74,295.95 144.19,308.96 "/>
   <g>
    <path class="fil0" d="M230.84 458.36l-37.87 0c-0.39,0.86 -0.62,1.71 -0.61,2.56 0,0.78 0.23,1.58 0.61,2.37l26.76 0c6.34,3.21 6.66,7.54 -0.05,11.26l-26.71 0c-0.41,0.77 -0.62,1.53 -0.62,2.29 -0.01,0.8 0.21,1.6 0.62,2.4l16.65 0c4.83,3.82 4.65,7.7 0,11.62l-30.45 -0.03c-4.77,-1.52 -7.85,-4.34 -8.49,-9.01l-14.31 -0.23 0 -37.77c10.18,-1.7 21.7,-11.92 34.02,-27.22 5.65,-1.26 8.51,0.77 9.15,5.4l-10.79 10.79 28.99 0c5.37,3.2 5.06,6.42 0,9.62l-24.77 0c-0.39,0.8 -0.6,1.6 -0.61,2.4 -0.01,0.84 0.18,1.68 0.61,2.53l37.94 0c5.58,3.29 5.6,6.96 -0.07,11.02z"/>
    <path class="fil6" d="M156.37 461.26c9.59,0.85 13.81,7.91 12.42,20.53l-12.42 -0.2 0 -20.33z"/>
   </g>
   <g>
    <path class="fil0" d="M319.57 458.36l37.88 0c0.38,0.86 0.62,1.71 0.61,2.56 -0.01,0.78 -0.23,1.58 -0.61,2.37l-26.77 0c-6.33,3.21 -6.65,7.54 0.05,11.26l26.72 0c0.41,0.77 0.62,1.53 0.62,2.29 0.01,0.8 -0.21,1.6 -0.62,2.4l-16.65 0c-4.83,3.82 -4.65,7.7 0,11.62l30.45 -0.03c4.77,-1.52 7.85,-4.34 8.48,-9.01l14.31 -0.23 0 -37.77c-10.17,-1.7 -21.69,-11.92 -34.01,-27.22 -5.66,-1.26 -8.51,0.77 -9.15,5.4l10.79 10.79 -28.99 0c-5.38,3.2 -5.06,6.42 0,9.62l24.77 0c0.39,0.8 0.6,1.6 0.61,2.4 0.01,0.84 -0.19,1.68 -0.61,2.53l-37.94 0c-5.58,3.29 -5.6,6.96 0.06,11.02z"/>
    <path class="fil6" d="M394.04 461.26c-9.58,0.85 -13.8,7.91 -12.42,20.53l12.42 -0.2 0 -20.33z"/>
   </g>
   <g style="clip-path:url(#id8)">
    <polygon class="fil0" points="293.31,376.47 367.04,376.47 367.04,413.49 293.31,413.49 "/>
   </g>
   <g style="clip-path:url(#id9)">
    <g>
     <path id="_1_2" class="fil6" d="M309.81 399.88c3.69,0.69 7.25,1.62 9.14,3.71l-25.99 10.09c1.24,-1.01 2.14,-2.18 3.16,-3.21 1.75,-1.75 3.53,-3.37 5.67,-5.1l8.02 -5.49z"/>
    </g>
   </g>
   <path class="fil4" d="M367.04 384.98l-6.87 -8.51c-46.8,19.29 -54.99,25.14 -66.86,37.02l73.73 -28.51z"/>
   <g style="clip-path:url(#id10)">
    <polygon class="fil0" points="182.87,376.45 256.6,376.45 256.6,413.47 182.87,413.47 "/>
   </g>
   <g style="clip-path:url(#id11)">
    <g>
     <path id="_1_3" class="fil6" d="M240.1 399.86c-3.69,0.69 -7.25,1.62 -9.14,3.71l26 10.09c-1.25,-1.01 -2.15,-2.19 -3.17,-3.21 -1.75,-1.75 -3.53,-3.37 -5.66,-5.1l-8.03 -5.49z"/>
    </g>
   </g>
   <path class="fil4" d="M182.87 384.96l6.87 -8.51c46.8,19.29 54.99,25.13 66.86,37.02l-73.73 -28.51z"/>
  </g>
 </g>
</svg>
