<?xml version="1.0" encoding="UTF-8"?>
<!DOCTYPE svg PUBLIC "-//W3C//DTD SVG 1.1//EN" "http://www.w3.org/Graphics/SVG/1.1/DTD/svg11.dtd">
<svg xmlns="http://www.w3.org/2000/svg" xml:space="preserve" width="600px" height="600px" version="1.1" style="shape-rendering:geometricPrecision; text-rendering:geometricPrecision; image-rendering:optimizeQuality; fill-rule:evenodd; clip-rule:evenodd"
viewBox="0 0 600 600"
 xmlns:xlink="http://www.w3.org/1999/xlink"
 xmlns:xodm="http://www.corel.com/coreldraw/odm/2003">
 <defs>
  <style type="text/css">
   <![CDATA[
    .str0 {stroke:white;stroke-linecap:round;stroke-linejoin:round;stroke-miterlimit:2.61313}
    .fil4 {fill:none}
    .fil2 {fill:#191919}
    .fil3 {fill:white}
    .fil5 {fill:white;fill-rule:nonzero}
    .fil6 {fill:#191919}
    .fil7 {fill:#ABABAB}
    .fil1 {fill:#BC002D}
    .fil0 {fill:white}
   ]]>
  </style>
    <clipPath id="id0">
     <path d="M300 49.56c138.32,0 250.45,112.12 250.45,250.44 0,138.32 -112.13,250.45 -250.45,250.45 -138.32,0 -250.45,-112.13 -250.45,-250.45 0,-138.32 112.13,-250.44 250.45,-250.44z"/>
    </clipPath>
    <clipPath id="id1">
     <path d="M300 49.56c138.32,0 250.45,112.12 250.45,250.44 0,138.32 -112.13,250.45 -250.45,250.45 -138.32,0 -250.45,-112.13 -250.45,-250.45 0,-138.32 112.13,-250.44 250.45,-250.44z"/>
    </clipPath>
    <clipPath id="id2">
     <path d="M300 300l5.9 -12.56c7.12,-0.36 13.59,3.55 19.31,12.56 -0.4,-21.07 -14.3,-25.71 -25.29,-32.05 -10.98,6.34 -24.72,10.98 -25.12,32.05 5.71,-9.01 12.19,-12.92 19.31,-12.56l5.89 12.56zm0 100.67c22.53,-18.07 36.88,-46.98 41.1,-89.29 3.97,16.38 3.19,32.77 -0.92,49.15 8.89,-7.61 15.58,-19.19 19.08,-36.48l0.28 -97.96 -17.9 0c1.04,11.57 0.17,20.41 -3.87,24.75l0 20.71 -1.93 0c-11.4,-17.2 -25.92,-22.7 -35.87,-13.87 -9.95,-8.83 -24.41,-3.33 -35.81,13.87l-1.93 0 0 -20.71c-4.04,-4.34 -4.91,-13.18 -3.86,-24.75l-17.9 0 0.27 97.96c3.51,17.29 10.19,28.87 19.08,36.48 -4.11,-16.38 -4.89,-32.77 -0.92,-49.15 4.22,42.31 18.57,71.22 41.1,89.29l0 0z"/>
    </clipPath>
    <clipPath id="id3">
     <path d="M300 300l5.9 -12.56c7.12,-0.36 13.59,3.55 19.31,12.56 -0.4,-21.07 -14.3,-25.71 -25.29,-32.05 -10.98,6.34 -24.72,10.98 -25.12,32.05 5.71,-9.01 12.19,-12.92 19.31,-12.56l5.89 12.56zm0 100.67c22.53,-18.07 36.88,-46.98 41.1,-89.29 3.97,16.38 3.19,32.77 -0.92,49.15 8.89,-7.61 15.58,-19.19 19.08,-36.48l0.28 -97.96 -17.9 0c1.04,11.57 0.17,20.41 -3.87,24.75l0 20.71 -1.93 0c-11.4,-17.2 -25.92,-22.7 -35.87,-13.87 -9.95,-8.83 -24.41,-3.33 -35.81,13.87l-1.93 0 0 -20.71c-4.04,-4.34 -4.91,-13.18 -3.86,-24.75l-17.9 0 0.27 97.96c3.51,17.29 10.19,28.87 19.08,36.48 -4.11,-16.38 -4.89,-32.77 -0.92,-49.15 4.22,42.31 18.57,71.22 41.1,89.29l0 0z"/>
    </clipPath>
    <clipPath id="id4">
     <path d="M426.09 362.82l10.09 10.09 6.66 -43.43 -26.61 -15.85 -14.51 0 -24.62 -10.95 22.23 18.27 31.55 13.01 -4.79 28.86z"/>
    </clipPath>
    <clipPath id="id5">
     <path d="M426.09 362.82l10.09 10.09 6.66 -43.43 -26.61 -15.85 -14.51 0 -24.62 -10.95 22.23 18.27 31.55 13.01 -4.79 28.86z"/>
    </clipPath>
    <clipPath id="id6">
     <path d="M173.98 362.82l-10.09 10.09 -6.66 -43.44 26.62 -15.85 14.5 0 24.62 -10.95 -22.23 18.28 -31.55 13.01 4.79 28.86z"/>
    </clipPath>
    <clipPath id="id7">
     <path d="M173.98 362.82l-10.09 10.09 -6.66 -43.44 26.62 -15.85 14.5 0 24.62 -10.95 -22.23 18.28 -31.55 13.01 4.79 28.86z"/>
    </clipPath>
    <clipPath id="id8">
     <path d="M392.04 409.98l-6.87 -8.51c-46.8,19.29 -54.99,25.14 -66.86,37.02l73.73 -28.51z"/>
    </clipPath>
    <clipPath id="id9">
     <path d="M392.04 409.98l-6.87 -8.51c-46.8,19.29 -54.99,25.14 -66.86,37.02l73.73 -28.51z"/>
    </clipPath>
    <clipPath id="id10">
     <path d="M207.87 409.96l6.87 -8.51c46.8,19.29 54.99,25.13 66.86,37.02l-73.73 -28.51z"/>
    </clipPath>
    <clipPath id="id11">
     <path d="M207.87 409.96l6.87 -8.51c46.8,19.29 54.99,25.13 66.86,37.02l-73.73 -28.51z"/>
    </clipPath>
 </defs>
 <g id="Layer_x0020_1">
  <metadata id="CorelCorpID_0Corel-Layer"/>
  <g id="_2320485559440">
   <path class="fil0" d="M300 25c151.88,0 275,123.12 275,275 0,151.88 -123.12,275 -275,275 -151.88,0 -275,-123.12 -275,-275 0,-151.88 123.12,-275 275,-275z"/>
   <g style="clip-path:url(#id0)">
    <polygon class="fil1" points="49.55,49.56 550.45,49.56 550.45,550.45 49.55,550.45 "/>
   </g>
   <g style="clip-path:url(#id1)">
    <g>
     <rect class="fil2" x="25.68" y="300.16" width="548.63" height="19.64"/>
     <rect class="fil3" x="27.78" y="319.8" width="544.45" height="19.64"/>
     <rect class="fil2" x="31.22" y="339.45" width="537.56" height="19.64"/>
     <rect class="fil3" x="36.22" y="359.09" width="527.56" height="19.64"/>
     <rect class="fil2" x="42.89" y="378.73" width="514.27" height="19.64"/>
     <rect class="fil3" x="51.7" y="398.38" width="496.65" height="19.64"/>
     <rect class="fil2" x="62.48" y="418.02" width="475.09" height="19.64"/>
     <rect class="fil3" x="74.87" y="437.66" width="450.31" height="19.64"/>
    </g>
   </g>
   <path class="fil4 str0" d="M300 49.56c138.32,0 250.45,112.12 250.45,250.44 0,138.32 -112.13,250.45 -250.45,250.45 -138.32,0 -250.45,-112.13 -250.45,-250.45 0,-138.32 112.13,-250.44 250.45,-250.44z"/>
   <g>
    <circle class="fil3" cx="101.1" cy="232.69" r="7.5"/>
    <polygon class="fil3" points="250.1,71.29 253.1,83.29 265.1,86.29 253.1,89.29 250.1,101.29 247.1,89.29 235.1,86.29 247.1,83.29 "/>
    <circle class="fil3" cx="226.95" cy="137.07" r="10"/>
    <polygon class="fil3" points="495.45,205.41 500.14,213.22 507.95,217.91 500.14,222.59 495.45,230.41 490.76,222.59 482.95,217.91 490.76,213.22 "/>
    <polygon class="fil3" points="471.33,250.6 474.83,257.1 481.33,260.6 474.83,264.1 471.33,270.6 467.83,264.1 461.33,260.6 467.83,257.1 "/>
    <circle class="fil3" cx="143.36" cy="267.97" r="20"/>
    <polygon class="fil3" points="461.43,221.79 464.05,226.66 468.93,229.29 464.05,231.92 461.43,236.79 458.8,231.92 453.93,229.29 458.8,226.66 "/>
   </g>
   <path class="fil5" d="M157.24 123.43c-0.28,1.04 -0.54,2.17 -0.78,3.4 -0.25,1.23 -0.48,2.36 -0.7,3.39 -0.22,1.2 -0.49,2.55 -0.82,4.05 -0.32,1.5 -0.64,3.01 -0.94,4.51 -0.3,1.5 -0.61,2.96 -0.94,4.37 -0.54,2.35 -1.23,5.08 -2.04,8.19 -0.82,3.11 -1.78,6.45 -2.87,10.02 -1.09,3.58 -2.32,7.17 -3.68,10.77 -1.37,3.6 -2.81,7.1 -4.34,10.51 -1.53,3.41 -3.16,6.48 -4.91,9.21l-10.64 -4.26c1.91,-2.56 3.7,-5.44 5.36,-8.63 1.67,-3.19 3.18,-6.48 4.54,-9.86 1.37,-3.38 2.58,-6.71 3.65,-9.99 1.06,-3.27 1.97,-6.32 2.74,-9.16 0.76,-2.84 1.36,-5.27 1.8,-7.29 0.76,-3.71 1.36,-7.28 1.8,-10.72 0.43,-3.43 0.63,-6.68 0.57,-9.74l12.2 1.23zm28.15 7.69c1.31,1.75 2.66,3.95 4.05,6.59 1.39,2.65 2.76,5.44 4.09,8.39 1.34,2.95 2.57,5.78 3.69,8.51 1.11,2.73 1.97,5.05 2.57,6.96l-10.39 4.83c-0.55,-2.29 -1.3,-4.84 -2.25,-7.66 -0.96,-2.8 -2.05,-5.67 -3.27,-8.59 -1.23,-2.92 -2.54,-5.69 -3.93,-8.31 -1.39,-2.61 -2.83,-4.8 -4.3,-6.54l9.74 -4.18zm-61.38 9.09c1.47,0.11 2.92,0.15 4.34,0.12 1.41,-0.03 2.89,-0.07 4.42,-0.12 1.3,-0.06 2.93,-0.15 4.87,-0.29 1.93,-0.13 3.98,-0.28 6.13,-0.45 2.16,-0.16 4.33,-0.34 6.51,-0.53 2.18,-0.19 4.2,-0.34 6.06,-0.45 1.85,-0.11 3.38,-0.16 4.58,-0.16 2.89,0 5.44,0.47 7.65,1.43 2.21,0.95 3.96,2.58 5.24,4.87 1.28,2.29 1.92,5.4 1.92,9.33 0,3.22 -0.15,6.71 -0.45,10.47 -0.3,3.77 -0.78,7.37 -1.43,10.81 -0.65,3.43 -1.58,6.35 -2.78,8.75 -1.31,2.84 -3.1,4.81 -5.36,5.9 -2.27,1.09 -4.95,1.63 -8.06,1.63 -1.59,0 -3.26,-0.12 -5.04,-0.37 -1.77,-0.24 -3.37,-0.5 -4.79,-0.77l-1.8 -10.81c1.09,0.28 2.28,0.55 3.56,0.82 1.29,0.27 2.51,0.49 3.69,0.66 1.17,0.16 2.11,0.24 2.82,0.24 1.36,0 2.56,-0.26 3.6,-0.78 1.04,-0.51 1.88,-1.43 2.54,-2.74 0.76,-1.58 1.38,-3.62 1.84,-6.13 0.46,-2.51 0.82,-5.23 1.06,-8.15 0.25,-2.92 0.37,-5.71 0.37,-8.39 0,-2.18 -0.3,-3.79 -0.9,-4.82 -0.6,-1.04 -1.49,-1.74 -2.66,-2.09 -1.17,-0.36 -2.63,-0.53 -4.38,-0.53 -1.2,0 -2.87,0.09 -5.03,0.28 -2.16,0.19 -4.43,0.41 -6.83,0.66 -2.41,0.24 -4.66,0.5 -6.76,0.77 -2.1,0.28 -3.72,0.47 -4.87,0.58 -1.14,0.22 -2.63,0.45 -4.46,0.69 -1.82,0.25 -3.37,0.48 -4.62,0.7l-0.98 -11.13z"/>
   <path class="fil5" d="M403.38 135.17c1.75,0.22 3.62,0.37 5.61,0.45 1.99,0.08 3.75,0.12 5.28,0.12 3.38,0 6.81,-0.19 10.27,-0.57 3.47,-0.38 6.81,-0.89 10.03,-1.52 3.22,-0.62 6.13,-1.35 8.75,-2.17l0.33 9.5c-2.35,0.6 -5.14,1.21 -8.39,1.84 -3.24,0.63 -6.67,1.14 -10.27,1.55 -3.6,0.41 -7.15,0.62 -10.64,0.62 -1.64,0 -3.3,-0.03 -4.99,-0.08 -1.69,-0.06 -3.44,-0.14 -5.24,-0.25l-0.74 -9.49zm31.84 -12.28c-0.33,1.36 -0.76,3.14 -1.31,5.32 -0.54,2.18 -1.16,4.47 -1.84,6.88 -0.68,2.4 -1.4,4.77 -2.17,7.11 -1.2,3.93 -2.78,8.11 -4.75,12.53 -1.96,4.42 -4.09,8.73 -6.38,12.93 -2.29,4.2 -4.61,7.94 -6.96,11.21l-9.9 -5.07c1.86,-2.3 3.68,-4.83 5.49,-7.62 1.8,-2.78 3.49,-5.64 5.07,-8.59 1.58,-2.94 3.01,-5.8 4.3,-8.55 1.28,-2.76 2.3,-5.25 3.06,-7.49 1.04,-2.89 1.96,-6.12 2.75,-9.7 0.79,-3.57 1.24,-6.94 1.35,-10.11l11.29 1.15zm19.15 25.45c-0.11,1.75 -0.15,3.48 -0.12,5.2 0.03,1.72 0.07,3.48 0.12,5.28 0.06,1.25 0.13,2.85 0.21,4.79 0.08,1.93 0.17,3.98 0.28,6.13 0.11,2.16 0.21,4.21 0.29,6.14 0.08,1.94 0.12,3.48 0.12,4.63 0,2.51 -0.52,4.78 -1.55,6.83 -1.04,2.05 -2.69,3.67 -4.95,4.87 -2.27,1.2 -5.36,1.8 -9.29,1.8 -3.39,0 -6.44,-0.5 -9.17,-1.51 -2.73,-1.01 -4.91,-2.51 -6.55,-4.5 -1.63,-2 -2.45,-4.49 -2.45,-7.49 0,-2.68 0.71,-5.09 2.13,-7.25 1.41,-2.15 3.47,-3.84 6.18,-5.07 2.7,-1.23 5.96,-1.84 9.77,-1.84 4.81,0 9.23,0.67 13.26,2 4.04,1.34 7.67,3.05 10.89,5.12 3.22,2.07 5.97,4.15 8.26,6.22l-5.48 8.76c-1.47,-1.31 -3.15,-2.79 -5.03,-4.42 -1.88,-1.64 -3.98,-3.17 -6.3,-4.59 -2.32,-1.41 -4.83,-2.59 -7.53,-3.52 -2.7,-0.92 -5.61,-1.39 -8.72,-1.39 -2.35,0 -4.23,0.47 -5.65,1.39 -1.41,0.93 -2.12,2.13 -2.12,3.61 0,1.52 0.61,2.75 1.84,3.68 1.23,0.93 2.96,1.39 5.19,1.39 1.86,0 3.33,-0.31 4.42,-0.94 1.09,-0.63 1.86,-1.53 2.29,-2.7 0.44,-1.18 0.66,-2.5 0.66,-3.97 0,-1.26 -0.06,-3.03 -0.16,-5.32 -0.11,-2.29 -0.24,-4.83 -0.37,-7.61 -0.14,-2.79 -0.26,-5.57 -0.37,-8.35 -0.11,-2.78 -0.22,-5.24 -0.33,-7.37l10.23 0zm14.08 4.34c-1.58,-1.31 -3.55,-2.7 -5.89,-4.17 -2.35,-1.48 -4.76,-2.88 -7.25,-4.22 -2.48,-1.34 -4.65,-2.41 -6.5,-3.23l5.24 -8.1c1.47,0.65 3.15,1.46 5.03,2.41 1.88,0.96 3.79,1.95 5.73,2.99 1.93,1.03 3.73,2.06 5.4,3.07 1.66,1.01 3.01,1.89 4.05,2.66l-5.81 8.59z"/>
   <path class="fil6" d="M377.1 262.09c36.37,-8.84 60.4,-23.77 60.4,-40.67 0,-18.29 -28.02,-34.25 -69.58,-42.7l-23.09 -57.09c25.57,-2.63 51.94,-2.77 37.86,-15.72l-63.81 -38.6 -55.92 39.23c-10.17,24.03 -19.02,47.81 -29.19,71.84 -42.48,8.35 -71.27,24.5 -71.27,43.04 0,16.94 24.02,31.88 60.56,40.71l-0.16 23.75 -72.57 26.49 -44.66 145.63c48.68,58.37 113.2,89.57 194.33,92.45 81.13,-2.88 145.65,-34.08 194.33,-92.45l-44.66 -145.63 -72.57 -26.49 0 -23.79z"/>
   <path class="fil0" d="M409.83 207.09c-9.53,-4.25 -38.28,-13.03 -46.1,-12.9l-127.88 0c-7.82,-0.13 -36.76,8.65 -46.29,12.9l220.27 0z"/>
   <path class="fil0" d="M299.89 160.4c15.38,0.77 30.62,2.65 45.93,5.26l-6.84 -20.16c-12.7,-2.62 -25.39,-4.38 -39.09,-5.08 -13.69,0.7 -26.39,2.46 -39.09,5.08l-6.84 20.16c15.31,-2.61 30.56,-4.49 45.93,-5.26z"/>
   <path class="fil0" d="M300.01 463.34l126.42 -47.46 -5.34 37.57 8.92 -0.32 5.98 -37.12c1.35,-8.33 -1.5,-13.3 -9.69,-13.48l-126.3 49.05 -126.3 -49.05c-8.19,0.18 -11.03,5.15 -9.69,13.48l5.99 37.12 8.91 0.32 -5.34 -37.57 126.44 47.46z"/>
   <path class="fil0" d="M219.69 395.99l8.32 -14.03c40.92,19.47 60.21,38.56 67.56,57.43 -18.23,-18.23 -47.95,-31.87 -75.88,-43.4z"/>
   <path class="fil0" d="M379.98 395.99l-8.31 -14.03c-40.93,19.47 -60.22,38.56 -67.57,57.43 18.23,-18.23 47.96,-31.87 75.88,-43.4z"/>
   <g style="clip-path:url(#id2)">
    <polygon class="fil0" points="240.47,226.09 359.54,226.09 359.54,400.67 240.47,400.67 "/>
   </g>
   <g style="clip-path:url(#id3)">
    <g>
     <path id="_1" class="fil7" d="M240.09 231.1c6.19,3.35 12.48,5.64 18.85,7.08l0.04 -12.35 -18.9 -0.13 0.01 5.4z"/>
     <path class="fil7" d="M360.12 231.14c-6.19,3.35 -12.48,5.65 -18.85,7.08l-0.04 -12.35 18.91 -0.12 -0.02 5.39z"/>
    </g>
   </g>
   <path class="fil4" d="M300 300l5.9 -12.56c7.12,-0.36 13.59,3.55 19.31,12.56 -0.4,-21.07 -14.3,-25.71 -25.29,-32.05 -10.98,6.34 -24.72,10.98 -25.12,32.05 5.71,-9.01 12.19,-12.92 19.31,-12.56l5.89 12.56zm0 100.67c22.53,-18.07 36.88,-46.98 41.1,-89.29 3.97,16.38 3.19,32.77 -0.92,49.15 8.89,-7.61 15.58,-19.19 19.08,-36.48l0.28 -97.96 -17.9 0c1.04,11.57 0.17,20.41 -3.87,24.75l0 20.71 -1.93 0c-11.4,-17.2 -25.92,-22.7 -35.87,-13.87 -9.95,-8.83 -24.41,-3.33 -35.81,13.87l-1.93 0 0 -20.71c-4.04,-4.34 -4.91,-13.18 -3.86,-24.75l-17.9 0 0.27 97.96c3.51,17.29 10.19,28.87 19.08,36.48 -4.11,-16.38 -4.89,-32.77 -0.92,-49.15 4.22,42.31 18.57,71.22 41.1,89.29"/>
   <g style="clip-path:url(#id4)">
    <polygon class="fil0" points="377.1,302.68 442.84,302.68 442.84,372.91 377.1,372.91 "/>
   </g>
   <g style="clip-path:url(#id5)">
    <g>
     <path id="_1_0" class="fil7" d="M429.72 333.79c5.73,1.33 10.43,3.13 13.69,5.61l-6.62 33.97 -13.23 -10.39 6.16 -29.19z"/>
    </g>
   </g>
   <polygon class="fil4" points="426.09,362.82 436.18,372.91 442.84,329.48 416.23,313.63 401.72,313.63 377.1,302.68 399.33,320.95 430.88,333.96 "/>
   <g style="clip-path:url(#id6)">
    <polygon class="fil0" points="157.23,302.67 222.97,302.67 222.97,372.91 157.23,372.91 "/>
   </g>
   <g style="clip-path:url(#id7)">
    <g>
     <path id="_1_1" class="fil7" d="M170.35 333.79c-5.72,1.32 -10.43,3.13 -13.69,5.6l6.62 33.97 13.23 -10.39 -6.16 -29.18z"/>
    </g>
   </g>
   <polygon class="fil4" points="173.98,362.82 163.89,372.91 157.23,329.47 183.85,313.62 198.35,313.62 222.97,302.67 200.74,320.95 169.19,333.96 "/>
   <g>
    <path class="fil0" d="M255.84 483.36l-37.87 0c-0.38,0.86 -0.62,1.71 -0.61,2.56 0,0.78 0.23,1.58 0.61,2.37l26.76 0c6.34,3.21 6.66,7.54 -0.05,11.26l-26.71 0c-0.41,0.76 -0.62,1.53 -0.62,2.29 -0.01,0.8 0.21,1.6 0.62,2.4l16.65 0c4.83,3.82 4.65,7.7 0,11.62l-30.45 -0.03c-4.77,-1.52 -7.85,-4.34 -8.48,-9.01l-14.32 -0.23 0 -37.77c10.18,-1.7 21.7,-11.92 34.02,-27.22 5.65,-1.26 8.51,0.77 9.15,5.4l-10.79 10.79 28.99 0c5.37,3.2 5.06,6.42 0,9.62l-24.77 0c-0.39,0.8 -0.6,1.6 -0.61,2.4 -0.01,0.84 0.18,1.68 0.61,2.53l37.94 0c5.58,3.29 5.6,6.96 -0.07,11.02z"/>
    <path class="fil7" d="M181.37 486.26c9.59,0.85 13.81,7.91 12.42,20.53l-12.42 -0.2 0 -20.33z"/>
   </g>
   <g>
    <path class="fil0" d="M344.57 483.36l37.88 0c0.38,0.86 0.62,1.71 0.61,2.56 -0.01,0.78 -0.23,1.58 -0.61,2.37l-26.77 0c-6.33,3.21 -6.65,7.54 0.05,11.26l26.72 0c0.41,0.76 0.62,1.53 0.62,2.29 0.01,0.8 -0.21,1.6 -0.62,2.4l-16.65 0c-4.83,3.82 -4.65,7.7 0,11.62l30.45 -0.03c4.77,-1.52 7.85,-4.34 8.48,-9.01l14.31 -0.23 0 -37.77c-10.17,-1.7 -21.69,-11.92 -34.01,-27.22 -5.66,-1.26 -8.51,0.77 -9.15,5.4l10.79 10.79 -28.99 0c-5.38,3.2 -5.06,6.42 0,9.62l24.77 0c0.39,0.8 0.6,1.6 0.61,2.4 0.01,0.84 -0.19,1.68 -0.61,2.53l-37.94 0c-5.58,3.29 -5.6,6.96 0.06,11.02z"/>
    <path class="fil7" d="M419.04 486.26c-9.58,0.85 -13.8,7.91 -12.42,20.53l12.42 -0.2 0 -20.33z"/>
   </g>
   <g style="clip-path:url(#id8)">
    <polygon class="fil0" points="318.31,401.47 392.04,401.47 392.04,438.49 318.31,438.49 "/>
   </g>
   <g style="clip-path:url(#id9)">
    <g>
     <path id="_1_2" class="fil7" d="M334.81 424.88c3.69,0.69 7.25,1.62 9.14,3.71l-25.99 10.09c1.24,-1.01 2.14,-2.18 3.16,-3.21 1.75,-1.75 3.53,-3.37 5.67,-5.1l8.02 -5.49z"/>
    </g>
   </g>
   <path class="fil4" d="M392.04 409.98l-6.87 -8.51c-46.8,19.29 -54.99,25.14 -66.86,37.02l73.73 -28.51z"/>
   <g style="clip-path:url(#id10)">
    <polygon class="fil0" points="207.87,401.45 281.6,401.45 281.6,438.47 207.87,438.47 "/>
   </g>
   <g style="clip-path:url(#id11)">
    <g>
     <path id="_1_3" class="fil7" d="M265.1 424.86c-3.69,0.69 -7.25,1.62 -9.14,3.71l26 10.09c-1.25,-1.01 -2.15,-2.19 -3.17,-3.21 -1.75,-1.75 -3.53,-3.37 -5.66,-5.1l-8.03 -5.49z"/>
    </g>
   </g>
   <path class="fil4" d="M207.87 409.96l6.87 -8.51c46.8,19.29 54.99,25.13 66.86,37.02l-73.73 -28.51z"/>
  </g>
 </g>
</svg>
